<?xml version="1.0" encoding="UTF-8" ?>
<!DOCTYPE svg PUBLIC "-//W3C//DTD SVG 1.1//EN" "http://www.w3.org/Graphics/SVG/1.1/DTD/svg11.dtd">
<svg width="2250pt" height="630pt" viewBox="0 0 2250 630" version="1.1" xmlns="http://www.w3.org/2000/svg">
<g id="#ffffffff">
</g>
<g id="#01ffffff">
<path fill="#01ffff" opacity="1.00" d=" M 251.18 93.29 C 339.10 93.11 427.03 93.27 514.95 93.21 C 536.96 93.28 558.98 93.07 580.99 93.33 C 585.21 92.85 589.18 96.77 589.20 100.96 C 589.38 107.30 589.18 113.64 589.27 119.98 C 589.27 122.59 589.34 125.39 587.99 127.71 C 586.08 130.08 583.10 131.62 580.01 131.24 C 478.01 131.30 376.01 131.24 274.02 131.28 C 270.41 130.96 267.12 133.62 265.81 136.83 C 265.44 139.86 265.44 142.92 265.48 145.97 C 265.85 150.24 269.58 153.92 273.98 153.74 C 375.99 153.77 478.01 153.70 580.02 153.77 C 584.71 153.00 589.55 157.29 589.25 162.02 C 589.24 169.01 589.24 176.00 589.29 182.99 C 589.77 187.89 584.98 192.47 580.09 191.74 C 478.05 191.79 376.02 191.74 273.98 191.76 C 271.02 191.53 268.25 193.28 266.76 195.76 C 264.77 198.81 265.63 202.64 265.48 206.07 C 265.12 210.57 269.38 215.08 273.92 214.76 C 375.96 214.73 478.00 214.76 580.04 214.75 C 585.09 214.11 590.07 218.85 589.31 223.94 C 589.10 231.66 589.49 239.40 589.05 247.11 C 587.62 250.09 584.60 253.23 580.99 252.72 C 478.99 252.77 376.98 252.68 274.98 252.76 C 271.85 252.42 269.07 254.05 266.83 256.05 C 265.19 259.80 265.32 263.95 265.60 267.95 C 265.64 272.21 269.65 276.10 273.95 275.75 C 375.96 275.79 477.97 275.75 579.98 275.77 C 584.14 275.31 589.20 278.48 589.15 282.99 C 589.41 290.33 589.15 297.68 589.29 305.02 C 589.63 309.47 585.73 314.24 581.05 313.71 C 473.36 313.77 365.67 313.74 257.99 313.73 C 255.73 313.41 252.37 314.31 251.11 311.90 C 250.63 308.63 250.84 305.31 250.74 302.03 C 250.73 241.66 250.74 181.30 250.74 120.93 C 250.96 111.72 250.25 102.47 251.18 93.29 Z" />
<path fill="#01ffff" opacity="1.00" d=" M 1661.63 96.27 C 1664.05 93.75 1667.61 93.02 1671.01 93.18 C 1780.17 93.32 1889.33 93.05 1998.48 93.32 C 1999.09 117.20 1998.59 141.11 1998.76 165.00 C 1998.75 197.67 1998.75 230.33 1998.76 263.00 C 1998.64 279.47 1999.01 295.94 1998.50 312.40 C 1995.90 313.91 1992.81 313.63 1989.95 313.74 C 1884.64 313.74 1779.32 313.73 1674.01 313.75 C 1670.07 313.70 1665.45 314.42 1662.41 311.30 C 1659.49 308.32 1659.97 303.84 1659.98 300.02 C 1660.15 294.20 1659.64 288.34 1660.27 282.54 C 1660.38 279.88 1662.71 278.34 1664.36 276.57 C 1668.13 275.33 1672.12 275.77 1676.03 275.77 C 1775.69 275.75 1875.36 275.79 1975.02 275.75 C 1979.10 275.98 1983.28 273.16 1983.78 268.93 C 1983.99 264.63 1984.83 259.74 1982.34 255.92 C 1980.40 254.01 1977.77 252.54 1974.99 252.72 C 1876.33 252.75 1777.68 252.73 1679.03 252.73 C 1674.13 252.43 1668.95 253.58 1664.28 251.77 C 1658.43 248.21 1660.26 240.68 1659.99 234.97 C 1660.40 228.43 1658.06 220.12 1664.29 215.59 C 1668.40 214.33 1672.73 214.85 1676.98 214.75 C 1774.99 214.75 1873.01 214.74 1971.02 214.76 C 1974.34 214.67 1978.14 215.33 1980.88 212.90 C 1984.72 210.21 1984.02 205.06 1984.02 200.98 C 1984.49 196.06 1980.07 191.16 1975.01 191.78 C 1872.97 191.72 1770.94 191.80 1668.90 191.74 C 1666.41 191.71 1663.61 191.08 1662.21 188.83 C 1659.76 186.18 1659.98 182.36 1659.97 179.01 C 1660.10 172.96 1659.78 166.90 1660.12 160.85 C 1660.25 158.16 1662.62 156.46 1664.25 154.59 C 1667.74 153.50 1671.42 153.70 1675.05 153.75 C 1775.04 153.74 1875.03 153.76 1975.02 153.74 C 1977.99 153.77 1981.40 152.62 1982.71 149.70 C 1984.69 146.47 1983.91 142.50 1983.90 138.92 C 1983.91 134.45 1979.35 130.86 1975.04 131.25 C 1875.02 131.29 1775.01 131.24 1675.00 131.27 C 1671.44 131.37 1667.85 131.40 1664.40 130.47 C 1658.52 126.58 1660.17 118.95 1659.99 112.97 C 1660.28 107.41 1658.99 101.45 1661.63 96.27 Z" />
</g>
<g id="#000000ff">
<path fill="#000000" opacity="1.00" d=" M 630.24 92.98 C 680.14 92.99 730.03 93.04 779.93 92.96 C 779.95 106.31 779.90 119.66 779.97 133.01 C 780.25 134.97 778.74 136.43 777.79 137.93 C 761.72 161.92 745.78 185.99 729.70 209.98 C 745.11 229.50 760.71 248.87 776.27 268.27 C 781.41 268.25 786.55 268.23 791.69 268.28 C 791.80 282.08 791.75 295.90 791.72 309.70 C 779.66 309.65 767.52 310.03 755.50 309.53 C 747.31 299.97 739.80 289.79 731.83 280.03 C 723.05 268.89 713.98 257.97 705.51 246.60 C 704.64 247.31 703.93 248.17 703.36 249.13 C 693.05 264.85 682.40 280.35 672.19 296.13 C 671.56 300.59 672.15 305.19 671.90 309.71 C 658.03 309.76 644.17 309.79 630.30 309.70 C 630.17 237.46 630.29 165.22 630.24 92.98 M 671.50 134.01 C 672.43 163.03 671.64 192.10 672.00 221.15 C 681.12 208.15 689.64 194.73 698.57 181.60 C 709.09 165.69 719.83 149.94 730.32 134.01 C 710.71 133.99 691.11 134.00 671.50 134.01 Z" />
<path fill="#000000" opacity="1.00" d=" M 829.88 93.08 C 880.40 93.04 930.91 93.03 981.43 93.09 C 981.56 106.87 981.25 120.65 981.57 134.43 C 974.09 135.18 966.51 134.53 958.99 134.75 C 929.58 134.75 900.16 134.74 870.74 134.75 C 871.37 148.02 870.72 161.31 871.13 174.58 C 907.93 174.64 944.74 174.36 981.53 174.72 C 981.33 188.48 981.49 202.24 981.44 216.00 C 944.63 216.00 907.82 216.00 871.01 216.00 C 871.06 233.43 870.90 250.85 871.09 268.28 C 907.81 268.18 944.53 268.37 981.25 268.18 C 981.70 282.07 981.33 295.99 981.42 309.90 C 930.92 309.96 880.42 309.95 829.92 309.90 C 830.11 252.61 829.94 195.31 830.00 138.02 C 829.93 123.04 830.15 108.06 829.88 93.08 Z" />
<path fill="#000000" opacity="1.00" d=" M 1131.10 93.12 C 1144.80 92.80 1158.54 93.45 1172.23 92.78 C 1172.72 116.15 1172.30 139.55 1172.44 162.93 C 1172.43 211.93 1172.48 260.92 1172.42 309.92 C 1124.57 309.94 1076.72 309.96 1028.88 309.91 C 1029.14 296.02 1028.96 282.13 1028.97 268.25 C 1062.93 268.30 1096.89 268.19 1130.85 268.30 C 1131.31 243.86 1130.93 219.40 1131.05 194.95 C 1131.08 161.01 1131.00 127.07 1131.10 93.12 Z" />
<path fill="#000000" opacity="1.00" d=" M 1221.28 93.12 C 1282.82 93.01 1344.36 93.03 1405.90 93.11 C 1405.96 165.37 1405.95 237.63 1405.90 309.89 C 1392.01 309.93 1378.13 310.02 1364.25 309.85 C 1364.26 282.73 1364.25 255.62 1364.25 228.51 C 1330.52 228.33 1296.79 228.55 1263.07 228.39 C 1262.75 255.55 1263.10 282.73 1262.89 309.90 C 1249.02 309.95 1235.14 309.97 1221.28 309.89 C 1221.23 237.63 1221.22 165.37 1221.28 93.12 M 1262.91 134.76 C 1262.88 152.17 1263.14 169.59 1262.75 187.00 C 1296.60 186.88 1330.46 187.17 1364.30 186.85 C 1364.19 169.49 1364.30 152.13 1364.24 134.77 C 1330.46 134.73 1296.69 134.75 1262.91 134.76 Z" />
<path fill="#000000" opacity="1.00" d=" M 1455.31 215.76 C 1455.21 174.78 1455.20 133.79 1455.31 92.81 C 1479.87 93.26 1504.46 92.87 1529.04 93.00 C 1559.27 92.98 1589.51 93.03 1619.75 92.97 C 1619.73 106.65 1619.74 120.34 1619.75 134.02 C 1578.79 134.09 1537.83 133.79 1496.89 134.17 C 1497.01 147.52 1496.92 160.88 1496.93 174.24 C 1537.85 174.31 1578.78 174.14 1619.71 174.32 C 1619.77 219.45 1619.77 264.59 1619.71 309.72 C 1564.92 309.73 1510.13 309.85 1455.34 309.66 C 1455.16 295.82 1455.24 281.98 1455.30 268.15 C 1496.22 267.85 1537.15 268.34 1578.07 267.90 C 1578.06 250.54 1578.06 233.19 1578.07 215.83 C 1551.71 215.64 1525.35 215.81 1499.00 215.74 C 1496.32 215.28 1493.65 215.41 1490.99 215.74 C 1479.09 215.78 1467.20 215.72 1455.31 215.76 Z" />
<path fill="#000000" opacity="1.00" d=" M 1190.55 347.09 C 1235.74 347.02 1280.92 347.04 1326.11 347.08 C 1325.93 359.08 1325.92 371.08 1326.12 383.08 C 1309.54 383.02 1292.94 382.84 1276.37 383.17 C 1276.58 434.47 1276.32 485.77 1276.50 537.07 C 1264.40 536.95 1252.30 537.01 1240.21 537.04 C 1240.28 485.70 1240.26 434.35 1240.22 383.01 C 1223.66 383.03 1207.10 382.94 1190.54 383.06 C 1190.57 371.07 1190.56 359.08 1190.55 347.09 Z" />
<path fill="#000000" opacity="1.00" d=" M 250.57 349.09 C 303.96 349.05 357.34 348.99 410.72 349.12 C 410.81 411.76 410.70 474.39 410.78 537.03 C 398.68 537.02 386.59 536.94 374.50 537.07 C 374.59 513.53 374.61 489.98 374.49 466.44 C 345.24 466.51 315.98 466.31 286.73 466.54 C 286.79 490.04 286.72 513.55 286.76 537.06 C 274.66 536.97 262.55 536.98 250.45 537.05 C 250.71 474.40 250.47 411.74 250.57 349.09 M 286.73 385.09 C 286.77 400.14 286.73 415.19 286.75 430.25 C 316.01 430.25 345.27 430.24 374.52 430.25 C 374.61 415.19 374.53 400.14 374.57 385.08 C 345.29 384.97 316.01 384.94 286.73 385.09 Z" />
<path fill="#000000" opacity="1.00" d=" M 451.56 348.59 C 494.84 348.57 538.12 348.53 581.40 348.61 C 581.61 360.62 581.18 372.65 581.62 384.66 C 567.14 406.70 552.34 428.53 537.83 450.55 C 551.37 467.33 564.72 484.25 578.28 501.02 C 582.77 500.97 587.26 501.11 591.76 501.11 C 591.74 513.03 591.75 524.96 591.75 536.88 C 581.23 537.03 570.71 536.88 560.19 536.97 C 545.40 518.90 531.04 500.47 516.50 482.19 C 507.05 496.52 497.36 510.70 488.03 525.10 C 487.38 528.97 487.91 532.96 487.75 536.88 C 475.68 536.98 463.61 536.99 451.54 536.89 C 451.58 474.12 451.54 411.35 451.56 348.59 M 487.74 460.17 C 504.54 435.06 521.46 410.01 537.98 384.72 C 521.16 384.76 504.34 384.79 487.53 384.71 C 487.16 409.87 487.66 435.02 487.74 460.17 Z" />
<path fill="#000000" opacity="1.00" d=" M 624.53 349.06 C 673.17 349.06 721.80 349.04 770.43 349.07 C 770.49 361.07 770.36 373.08 770.50 385.08 C 733.92 384.94 697.33 385.00 660.75 385.05 C 660.74 423.66 660.81 462.27 660.71 500.87 C 685.22 501.19 709.76 501.13 734.28 500.90 C 734.22 486.63 734.24 472.36 734.27 458.08 C 721.26 457.85 708.26 458.14 695.25 457.93 C 695.32 445.14 695.09 432.33 695.37 419.54 C 720.36 419.61 745.35 419.49 770.35 419.60 C 770.61 458.75 770.29 497.91 770.51 537.07 C 721.84 536.94 673.18 537.03 624.52 537.02 C 624.61 474.37 624.57 411.72 624.53 349.06 Z" />
<path fill="#000000" opacity="1.00" d=" M 811.58 349.09 C 855.44 349.02 899.30 349.06 943.15 349.07 C 942.72 361.23 943.30 373.41 942.86 385.57 C 940.67 384.76 938.30 385.06 936.03 385.01 C 906.63 385.00 877.23 385.02 847.83 385.00 C 847.64 396.50 847.80 408.01 847.76 419.51 C 879.54 419.60 911.32 419.55 943.10 419.55 C 942.91 431.63 943.02 443.72 943.04 455.81 C 911.28 455.68 879.52 455.77 847.76 455.76 C 847.79 470.86 847.65 485.96 847.82 501.06 C 879.60 501.06 911.38 501.04 943.15 501.07 C 942.85 513.10 943.04 525.15 943.06 537.19 C 899.21 536.81 855.35 537.04 811.50 537.07 C 811.64 474.41 811.49 411.75 811.58 349.09 Z" />
<path fill="#000000" opacity="1.00" d=" M 986.10 349.11 C 1040.54 349.00 1094.98 349.05 1149.43 349.09 C 1149.53 411.74 1149.29 474.40 1149.55 537.05 C 1137.45 536.98 1125.34 536.97 1113.24 537.06 C 1113.29 486.19 1113.19 435.33 1113.29 384.46 C 1082.87 384.34 1052.44 384.63 1022.02 384.32 C 1022.03 435.26 1021.91 486.21 1022.08 537.15 C 1010.09 536.89 998.08 536.95 986.09 537.13 C 986.05 474.46 986.04 411.78 986.10 349.11 Z" />
<path fill="#000000" opacity="1.00" d=" M 1366.10 349.10 C 1378.10 349.01 1390.11 349.05 1402.12 349.08 C 1401.90 411.75 1401.96 474.43 1402.09 537.09 C 1390.09 536.93 1378.09 536.99 1366.10 537.07 C 1366.03 474.41 1366.04 411.75 1366.10 349.10 Z" />
<path fill="#000000" opacity="1.00" d=" M 1445.88 349.08 C 1500.41 349.05 1554.93 349.01 1609.45 349.10 C 1609.46 411.76 1609.37 474.41 1609.50 537.07 C 1597.41 536.94 1585.31 537.02 1573.22 537.03 C 1573.29 486.40 1573.20 435.78 1573.27 385.15 C 1542.85 384.87 1512.41 384.99 1481.99 385.10 C 1481.84 435.75 1482.03 486.41 1481.90 537.07 C 1469.90 536.99 1457.90 536.93 1445.91 537.09 C 1446.12 482.07 1445.94 427.04 1446.00 372.02 C 1445.93 364.37 1446.13 356.72 1445.88 349.08 Z" />
<path fill="#000000" opacity="1.00" d=" M 1653.56 349.07 C 1707.01 349.07 1760.45 348.99 1813.90 349.11 C 1813.96 411.78 1813.94 474.46 1813.91 537.13 C 1801.92 536.97 1789.92 536.85 1777.94 537.18 C 1777.97 513.60 1778.17 490.02 1777.84 466.45 C 1748.47 466.46 1719.11 466.40 1689.75 466.48 C 1689.76 489.99 1689.74 513.49 1689.76 537.00 C 1677.67 537.06 1665.58 536.92 1653.49 537.07 C 1653.65 474.41 1653.50 411.74 1653.56 349.07 M 1689.74 385.05 C 1689.76 400.12 1689.74 415.18 1689.75 430.25 C 1719.12 430.28 1748.48 430.17 1777.85 430.30 C 1778.17 415.22 1777.94 400.14 1777.96 385.05 C 1748.56 384.97 1719.15 384.98 1689.74 385.05 Z" />
<path fill="#000000" opacity="1.00" d=" M 1856.92 348.53 C 1904.30 348.53 1951.70 348.70 1999.08 348.45 C 1999.91 360.46 1999.16 372.60 1999.47 384.66 C 1963.67 384.84 1927.86 384.77 1892.07 384.69 C 1891.94 396.45 1891.98 408.21 1892.05 419.97 C 1927.87 420.01 1963.69 420.04 1999.51 419.95 C 1999.36 458.93 1999.45 497.92 1999.46 536.90 C 1951.98 537.00 1904.51 536.91 1857.04 536.95 C 1856.88 524.93 1857.13 512.92 1856.90 500.90 C 1892.36 501.06 1927.82 501.07 1963.27 500.90 C 1963.21 485.78 1963.23 470.66 1963.27 455.55 C 1927.83 455.34 1892.37 455.40 1856.93 455.52 C 1857.02 419.86 1857.05 384.19 1856.92 348.53 Z" />
</g>
</svg>
